<mxfile host="app.diagrams.net" modified="2021-11-16T02:14:30.882Z" agent="5.0 (Macintosh; Intel Mac OS X 10_15_7) AppleWebKit/537.36 (KHTML, like Gecko) Chrome/95.0.4638.69 Safari/537.36" etag="3MmGrJmGXd2_tdx0HDor" version="15.5.9" type="github">
  <diagram id="Wha0EdjNsnx2dC8HYiSC" name="Page-1">
    <mxGraphModel dx="1116" dy="569" grid="0" gridSize="10" guides="1" tooltips="1" connect="1" arrows="1" fold="1" page="0" pageScale="1" pageWidth="827" pageHeight="1169" math="0" shadow="0">
      <root>
        <mxCell id="0" />
        <mxCell id="1" parent="0" />
        <mxCell id="U9IS0z9IUB5rBUv3sTGb-19" value="" style="rounded=0;whiteSpace=wrap;html=1;" parent="1" vertex="1">
          <mxGeometry x="410" y="250" width="680" height="320" as="geometry" />
        </mxCell>
        <mxCell id="U9IS0z9IUB5rBUv3sTGb-1" value="" style="dashed=0;outlineConnect=0;html=1;align=center;labelPosition=center;verticalLabelPosition=bottom;verticalAlign=top;shape=mxgraph.weblogos.chrome" parent="1" vertex="1">
          <mxGeometry x="60" y="360" width="39.68" height="40" as="geometry" />
        </mxCell>
        <mxCell id="U9IS0z9IUB5rBUv3sTGb-2" value="" style="edgeStyle=orthogonalEdgeStyle;rounded=1;orthogonalLoop=1;jettySize=auto;html=1;fontSize=11;endArrow=classic;endFill=1;strokeColor=default;strokeWidth=1;" parent="1" source="U9IS0z9IUB5rBUv3sTGb-3" target="U9IS0z9IUB5rBUv3sTGb-5" edge="1">
          <mxGeometry relative="1" as="geometry" />
        </mxCell>
        <mxCell id="U9IS0z9IUB5rBUv3sTGb-3" value="" style="html=1;verticalLabelPosition=bottom;labelBackgroundColor=#ffffff;verticalAlign=top;shadow=0;dashed=0;strokeWidth=1;shape=mxgraph.ios7.misc.iphone;strokeColor=#c0c0c0;" parent="1" vertex="1">
          <mxGeometry x="110" y="352.5" width="27.5" height="55" as="geometry" />
        </mxCell>
        <mxCell id="U9IS0z9IUB5rBUv3sTGb-4" value="" style="edgeStyle=orthogonalEdgeStyle;rounded=1;orthogonalLoop=1;jettySize=auto;html=1;fontSize=11;endArrow=classic;endFill=1;strokeColor=default;strokeWidth=1;" parent="1" source="U9IS0z9IUB5rBUv3sTGb-5" target="U9IS0z9IUB5rBUv3sTGb-7" edge="1">
          <mxGeometry relative="1" as="geometry" />
        </mxCell>
        <mxCell id="U9IS0z9IUB5rBUv3sTGb-5" value="CDN" style="rounded=0;whiteSpace=wrap;html=1;" parent="1" vertex="1">
          <mxGeometry x="160" y="368.75" width="51.85" height="20" as="geometry" />
        </mxCell>
        <mxCell id="U9IS0z9IUB5rBUv3sTGb-6" value="" style="edgeStyle=orthogonalEdgeStyle;rounded=1;orthogonalLoop=1;jettySize=auto;html=1;fontSize=11;endArrow=classic;endFill=1;strokeColor=default;strokeWidth=1;entryX=0;entryY=0.5;entryDx=0;entryDy=0;" parent="1" source="U9IS0z9IUB5rBUv3sTGb-7" target="U9IS0z9IUB5rBUv3sTGb-9" edge="1">
          <mxGeometry relative="1" as="geometry" />
        </mxCell>
        <mxCell id="U9IS0z9IUB5rBUv3sTGb-7" value="WAF" style="rounded=0;whiteSpace=wrap;html=1;" parent="1" vertex="1">
          <mxGeometry x="240" y="368.75" width="51.85" height="20" as="geometry" />
        </mxCell>
        <mxCell id="U9IS0z9IUB5rBUv3sTGb-8" value="" style="group" parent="1" vertex="1" connectable="0">
          <mxGeometry x="330" y="340" width="60" height="70" as="geometry" />
        </mxCell>
        <mxCell id="U9IS0z9IUB5rBUv3sTGb-9" value="" style="rounded=0;whiteSpace=wrap;html=1;" parent="U9IS0z9IUB5rBUv3sTGb-8" vertex="1">
          <mxGeometry width="60" height="70" as="geometry" />
        </mxCell>
        <mxCell id="U9IS0z9IUB5rBUv3sTGb-10" value="" style="sketch=0;aspect=fixed;html=1;points=[];align=center;image;fontSize=12;image=img/lib/mscae/Route_Filter.svg;strokeColor=default;fillColor=none;" parent="U9IS0z9IUB5rBUv3sTGb-8" vertex="1">
          <mxGeometry x="10.949999999999989" y="4" width="38.1" height="32" as="geometry" />
        </mxCell>
        <mxCell id="U9IS0z9IUB5rBUv3sTGb-11" value="负载均衡&lt;br&gt;SLB" style="text;html=1;strokeColor=none;fillColor=none;align=center;verticalAlign=middle;whiteSpace=wrap;rounded=0;" parent="U9IS0z9IUB5rBUv3sTGb-8" vertex="1">
          <mxGeometry y="40" width="60" height="30" as="geometry" />
        </mxCell>
        <mxCell id="U9IS0z9IUB5rBUv3sTGb-18" value="" style="edgeStyle=orthogonalEdgeStyle;rounded=0;orthogonalLoop=1;jettySize=auto;html=1;" parent="1" source="U9IS0z9IUB5rBUv3sTGb-12" target="U9IS0z9IUB5rBUv3sTGb-15" edge="1">
          <mxGeometry relative="1" as="geometry" />
        </mxCell>
        <mxCell id="U9IS0z9IUB5rBUv3sTGb-12" value="K8S&lt;br&gt;Ingress" style="rounded=0;whiteSpace=wrap;html=1;" parent="1" vertex="1">
          <mxGeometry x="390" y="350" width="50" height="50" as="geometry" />
        </mxCell>
        <mxCell id="U9IS0z9IUB5rBUv3sTGb-13" value="业务系统用户" style="text;html=1;strokeColor=none;fillColor=none;align=center;verticalAlign=middle;whiteSpace=wrap;rounded=0;fontSize=11;" parent="1" vertex="1">
          <mxGeometry x="50" y="410" width="110" height="31" as="geometry" />
        </mxCell>
        <mxCell id="U9IS0z9IUB5rBUv3sTGb-24" style="edgeStyle=orthogonalEdgeStyle;rounded=0;orthogonalLoop=1;jettySize=auto;html=1;exitX=1;exitY=0.5;exitDx=0;exitDy=0;entryX=0;entryY=0.5;entryDx=0;entryDy=0;curved=1;" parent="1" source="U9IS0z9IUB5rBUv3sTGb-14" target="U9IS0z9IUB5rBUv3sTGb-21" edge="1">
          <mxGeometry relative="1" as="geometry" />
        </mxCell>
        <mxCell id="U9IS0z9IUB5rBUv3sTGb-27" value="基于固定上下文转发" style="edgeLabel;html=1;align=center;verticalAlign=middle;resizable=0;points=[];" parent="U9IS0z9IUB5rBUv3sTGb-24" vertex="1" connectable="0">
          <mxGeometry x="0.0894" relative="1" as="geometry">
            <mxPoint as="offset" />
          </mxGeometry>
        </mxCell>
        <mxCell id="U9IS0z9IUB5rBUv3sTGb-25" style="edgeStyle=orthogonalEdgeStyle;curved=1;rounded=0;orthogonalLoop=1;jettySize=auto;html=1;exitX=1;exitY=0.5;exitDx=0;exitDy=0;entryX=0;entryY=0.5;entryDx=0;entryDy=0;" parent="1" source="U9IS0z9IUB5rBUv3sTGb-14" target="U9IS0z9IUB5rBUv3sTGb-22" edge="1">
          <mxGeometry relative="1" as="geometry" />
        </mxCell>
        <mxCell id="U9IS0z9IUB5rBUv3sTGb-28" value="通过服务发现转发" style="edgeLabel;html=1;align=center;verticalAlign=middle;resizable=0;points=[];" parent="U9IS0z9IUB5rBUv3sTGb-25" vertex="1" connectable="0">
          <mxGeometry x="0.36" y="1" relative="1" as="geometry">
            <mxPoint as="offset" />
          </mxGeometry>
        </mxCell>
        <mxCell id="U9IS0z9IUB5rBUv3sTGb-26" style="edgeStyle=orthogonalEdgeStyle;curved=1;rounded=0;orthogonalLoop=1;jettySize=auto;html=1;exitX=1;exitY=0.5;exitDx=0;exitDy=0;entryX=0;entryY=0.5;entryDx=0;entryDy=0;" parent="1" source="U9IS0z9IUB5rBUv3sTGb-14" target="U9IS0z9IUB5rBUv3sTGb-23" edge="1">
          <mxGeometry relative="1" as="geometry" />
        </mxCell>
        <mxCell id="U9IS0z9IUB5rBUv3sTGb-29" value="基于固定上下文转发" style="edgeLabel;html=1;align=center;verticalAlign=middle;resizable=0;points=[];" parent="U9IS0z9IUB5rBUv3sTGb-26" vertex="1" connectable="0">
          <mxGeometry x="0.2075" y="6" relative="1" as="geometry">
            <mxPoint as="offset" />
          </mxGeometry>
        </mxCell>
        <mxCell id="U9IS0z9IUB5rBUv3sTGb-14" value="" style="rounded=0;whiteSpace=wrap;html=1;strokeColor=default;fillColor=none;dashed=1;" parent="1" vertex="1">
          <mxGeometry x="500" y="355" width="230" height="40" as="geometry" />
        </mxCell>
        <mxCell id="U9IS0z9IUB5rBUv3sTGb-15" value="" style="sketch=0;html=1;dashed=0;whitespace=wrap;fillColor=#2875E2;strokeColor=#ffffff;points=[[0.005,0.63,0],[0.1,0.2,0],[0.9,0.2,0],[0.5,0,0],[0.995,0.63,0],[0.72,0.99,0],[0.5,1,0],[0.28,0.99,0]];shape=mxgraph.kubernetes.icon;prIcon=pod;align=left;" parent="1" vertex="1">
          <mxGeometry x="526.66" y="363.75" width="25.84" height="27.5" as="geometry" />
        </mxCell>
        <mxCell id="U9IS0z9IUB5rBUv3sTGb-16" value="" style="shape=image;verticalLabelPosition=bottom;labelBackgroundColor=#ffffff;verticalAlign=top;aspect=fixed;imageAspect=0;image=data:image/png,iVBORw0KGgoAAAANSUhEUgAAALQAAAClCAYAAAD1R9cMAAAgAElEQVR4Ae2d6XMcRZrG93/C6q7WZaklS7YwtonYmC87A1iyJN/AwOwxO/t9P+zHHcAGnxhmAA/DaQ5jzGmwLR/YaoEFno3YHWzm2tnxP5AbT2Y+WVnZWUdL3a1udXZExltXV2W9+dOjp96urv47EV4hA+soA3+3js4lnErIgAhAtxGC3y8stPFovXmoAHQbx/2bg/NtPFpvHioA3aZxv/vCCbH04KR4c/fuNh2xNw8TgG7DuH/7H/8ulh7cLGo7JsXZnQ+LYD1al/QAdOtya/b8u58/IdUZCg3bEVTapKbpEwHopqc0ucMftNUAzGi3Du4Wz1WioNLJNDVtLgDdtFT6d0SQ7QjbEVTan6/VLg1ArzaDGe+/+8JxYzVsoN/f+bBU6cuHDmW8O6xaSQYC0CvJWoH3sKphg8xp+GjYjmA9CiSywU0C0A0mrOjm9oUgQbYjgQ7Wo2hGi20XgC6Wp4a2ci8EbZA5DR9NqEMZr6H0Zm4cgM5Mz8pWEtpkVHVoLmO1A1C/ET5sWVmiPe8KQHuSsppFWd6ZMCPaPhpQfx/u81hN2s17A9AmFaufSKtq2CDb07AdR/or0noghtfqMxCAXn0OzR5sWItMn51+WBypROJIfyTjwuHDZl9hYmUZCECvLG917/JdCNb0p4NpcMN2HO2viKOVSBzTMViPutQ2tCAA3VC60jdOgzZv+dF+BfMxHd/eE+7GS89y/poAdH6Ocrdo1DvbkJ+bfkQQZhkHKuECMTfj6RsEoNNzU2hN0aqGDbE9ff2JR6XdgOU4NlCR02f27Cl07LBRfQYC0PU5aWhJDGeyzhwvV3fZ8X5odznq0YD5uIQ5kvF4f0XcWbjSUD/CxioDAehVkOC7EHSBLTIPmO12YqAi0MKr8QwEoBvPmXlHEViLbAMfDYAB9YmBfjl9cqBfXH02lPFMsgtOBKALJsrdbDUXgi7ktw7OS4ipzCcHKgLt+cH+YD3cxOfMB6BzEuRbffeUus+5tmPCe78zgc2rQ3M9gD45qJV5sN/ADKjf27vX14WwLCUDAeiUxGQtXgLIdsv5AIWAZ8XzM4+I5wcr4nmtzFDnU7JVxN0r4QIxazzsdQFoOxsFpn84dVzUtm+ygJ5U06uE+qNdOyXMgBhQE+YXhvrFe3tDGa/A0MhNAtBFM6W3W0rA3Dylhu1QEFOZ+wVgZrv27LMN9rQ3Nw9ANzDud58/JiTQGmpXqbM9dX6d+tRgRQIMsAnyixrqF4cGGuhp724agC449hLmbZvEEhqAllDDetj2Qyv2Cu3Hx7t2GpABNGBG+5Vu158LKp03XAHovAzp9UvbxkXtgXEJdG3buASaCs2oLhQnhVHqHfyUsFiE7YgVmTAPaKgHJNg/hAvEzBELQGemR62U6gyYJdAK6oRSG7Venacm0FRkxl8P9wvVBsTZfaGMlzVkAeis7Oh1ta1jEmYZPUrNC8U6pd6u69QpSs06tF3O+2R2p1TiXw8rRUYEzC9tjGNQ6fRBC0Cn50auuXvyqFJmrdDSdiTUWtkP46v1BWOiTp0CtA0ypz/ZtVMQYkbAbLdz+/fl9Lp3VwegM8b+7omjYmnrmEgo9APj8by0IJuE8dS4YNwxYdWpOQ8rUqxevXxwd50ivzTcL16WUKuI6RvhAtE7cgFob1rUwqX7NcwW1NJHU6EZcZGoLxRzlbqAWttqjGkAbLdXNg4ItPCqz0AAuj4ncgnUuTZVVQp9/1gxpQbg26HYKOs1qtRxnfrT2Z1KkbUyA+ZXRhTUiID59Mig+DBYj7rRC0DXpUSIe9evKpih0ICZzaPUtCOsgEj7UVevdqof0n6kl/JuPvlYUpE1xFTm0yMAWrUfrlz1nEHvLgpAe8b+7vEjYmmqGkMNpSbcFtSE2UR6asaUenUN1Y8MT43yna3EVOTTWplNHBkU5w/s95xB7y4KQDtjD5hrW6qyGainYqWWim1B7fXUEmhPvVreoVfsk0UFcazESpEHpdWA3UD7zciQbEGl40EMQMe5kFNLW0ZFbcuoUmhGKjQjPTWiXfVgvZoKzegodVy3tqzIg9YnjA9Ois/nZkSsxMozE2IZRwHzoHh1dEh8FFTajGIA2qRCiLvHoM6jglDXK3VsQ6SvplJrkG24qdz8uDzxyaJ9L3ViGqU95a3x5VkqMaNS5EHxGwnzkIT51REVF488Z51J704GoPXY37t2VdQ2jyiYN8dQS9tBpd6ivbRPqQm3q9ieTxZlFcSqVyc+YcSNTTsmBOrRVGJGKjIjYP7t6JBg/EO4QAy/JEstk+q8eURCXds8KmTT9iNLqVkFkReGUGraDku1qdZSpRuoV1+Ym1E+2VZkAKwbYLbbJ4+GC8Sg0EKIO0efE0uTI6I2uVEsaail7aBiG4Wmt66KJVwoNkOpza2odt1a3QNyYW7a2AqlxIMG4Nc0zK9VhwSmX6sOy/iHq71dxgtACyFqGmYVqdKISqljT21fMALq2FMbpdYXjGlKrTy1/mQxp169fGBeAm2rMKYlwFZ8vTosXq8OyfZpj6t0zwMNda5NbIwV2lbqyRGxJKHW3nrLqLjxDz+Sz3NW3tpRaig2vDSrII79qKtXs/rBqG9ssj01YY4VWSkxFVnCPDok3gDUOvaySvc00PeuXhG1iWEJNKCG5VAN9qNeqVEB4e+inH3kIV3aW5lSS18NkGVzvwkTl/NgO4wia3sh1XgUiqyUGTC/UVVQY/qzRw/w0qDnYk8DfefIsxrmYbEEmAG3hjrhqbVSf/qjvzdAA+yv56ctqC1P3ZBS62/CyHtArFtRdRUEtgNAA15GKjEjYH5zTEGN+GZ1WHx99EjPwYwT7lmgJcybhkUNTap0hlJPjohrB/fJp+wDZDx1HxEqHX8Io/y0vFD0fLIoPbVV2mPlI9NTb98kbh2YM0pMn6wUGQBriKsKYoCM9taYan/swQvEngW6Nj4sauNDCmgJ9UY5vQTrMaEVG1UPwHxgn3zK/pGorGBmrETi2qP7LaitKgju/XCrIJmeOv07i1/MTSuPbGyFq8hDEmIDc3VYvD02LD5/rPesR08Cfee5ZxXMANqG2qg1oKaf3ihhPhpFCmqt0PK3UfT0N/PTFtSWp/aV9gC1R6mp2Mpbw1PH9uPLuZmER6YS015QkRkBM1uvqXTPAV0Hs1bqJcBswU2lPj3UL45GZXGsEsmI30OBUtvx7MM/EUvyhiYqNKNTBWH1I+0eECq4cw/I8v65Oo8MeI0iS4A3ire0MgPmM+MbJdQXekylew7o2wf2JtWZKi2j9tSAe9OweH/jgDimYT4WRQINcANmKjYjPDb8dMJTm7v2UuyHR6nTvrMoVdmB2KfIhPmMhHpYIP6ph7x0TwF959nDojY2JBbHtNVgJMxU6PEhB2al0ITbVmxbub+ZmzY3NtXdA5KwH43Xqy/OzxgF9ikxFBnwvmPFd8aGxbvjGwVir7x6CuhadUjUqoMSaoAtW0KhFehXtm4WxyoaYhnLllJjGmpdD/kHD/8kcQ9I/OGLc381vyzA6FNqbT9Yr649+ZjxxfTHUoWhxLoBZsAr47iCGUCj3TrWG2W8ngEa6rwImC2o5bwF9qKG+3ilLI7jtwMjHa15KLILM+eh3NJ6ZN4DYn1c3kAVZHnfnAT6zJjyxpmKbGAeFu9tUkAj9oL16Amg7xw+rJRZAm1BDbgJtLYf7w/3ixMSYMCcbEq185Ub1sO+W29pSnnr+rv2Urw1Lgp148flmKcSxzAPW4qswH3XwLxRwgyQ2b58/OC6dx49AfR3+3ZLoBdHB1TUSk2FZjw7VFEwR2UrRuK4Vmqj3FRsK9rK/cFDP07eA4L7q3Ejk3vXHhWakVUQVjuceGlu2u+RDcRUZBUJsh3/fG1934237oG+c/iQqAFktqqCWnppS7EB88lKWZzQMJuIZY5S28oN1cZ8rN5q+uvZnfpuvZG4+pF6f3WKUls+Gkq9vHdWvGPBS3/MaIPrm35/YkRcXOcqve6BXhwZEIsj/RJoTNdGB0Ws1DHcz1fK4mRUMlAruOP5ExWl1BJuCT2Vm7ak3nPjBqfE3Xpp3poKzUildurVAFrBm6bEsTIDXkCNiHbWisvHjq5b67Gugb5z6JCEWUENsAcUzEat4acHxWsDkXg+AtC6SbiT8wBZNiq4pdxpCn79wD551x6hrr+/Oln9wEfl3o/LodRarS/PTxtP7FNhG2IbZgDN9sHkSAC62zIgYd5Y0UD3K5g9Sn1uuCKej0oCCs0IpaZiM9KOuDFW7LL02pynLflmdjoB9Wq/CbMwPyPe2xQrMaHOUmSADIgZP5gYEd8eX58qvW4VehEwbwTIvqbU+txQRZyKyrIBZkxDqX3NqDdVHDHHcwPucw/9WH8jpv7+6vibMJZS44u4rlKjXq1VennvrjqFphIzUokZATMglnFyRJzT7S/XrnWbTuX2d10CfeeZZwSAvjmsofYo9cWN/eJUVBIvVBTQCmZCXRKnqNgScFexy0bBCbWKtudWin3l0KGmf2eRtoIRIANeRioxI2AGxIyY/nDzqFj46for461LoGOYATShTio1QLYbldqN9cpdSii4VG6f59Zem5Jy+/EDBZTauRfEp9T3jwnYDqqxDXFCkQGwblRkxg8nRwXbelPpdQc01PnmcKQVmpFQK099bjASLwLoqGyiUmoqNqNrR2IFV7bEVe54HooNdeZLPvdD319tvl3uVkHcOrW0H1ZJD1UQlO/27Epc4GUq8eSoVGcoMiA+b2JVzl954lF2cV3EdQW0hHkoEovDsBs2zLQfFUGYX9QwMwJuW7E57So25+uVO+m9bZhJivxCrvyKl/7OovneIr5dHter3bv2XE8NH21DXESJCfN5DTXA/ki379bRBeK6AvrmUFksDkVCxgTUCu5zA5H4VaUsADEjlNqG2qfchN323AA+hrrecxNiN95+DNbD/Za5U69OU2rryU1X53cZTwygbTtBj0yIVawKwPzR5qpUaUQA/bGObj+7dX7dAK3UuaxgllBHUqVtpf4VQHZaAm6otke5JeQNeO47lxdSeZDfNE98uxzfjEl+yzyufqR46qkxcXV+xkBswwx4bXvhU2Qb5o8B9ZaquLZOrMe6AXpxyIa5XqnfqCiYf62BNlEvp2K70VVszktLom2KrdzXLN+cRvXtx/bXf7tcQ80PYVS9Gs/Y89wDsqUqfTSVmJFKzOhV5C1ambdUBWD+xIr/uw7KeOsC6DtPPy1uDiqgYTfYlP2IxIcDZQGAfQ2KTbht9U4ot2VLqOC0IfTaiO/Nz6cxXLfc/s6iUuh6pbbv2ItvbFI1a3yiKNXYVeTN6sJPeWQFb50ibwbMVQkzgGa7/mT3XyB2PdAS5oGyWATQg1DmpFIrmEsK2rKKMdjWvFRqvR0gX4FyZ1kNl+h7V6/6nwNiKzWqILihKeVpqFfnp6UfNkqsPbL0xlRiCW9SiT/ZPCo+BciMW6pyHsu6XaW7HuibAyVxc6CsmgP1RanMJfFSxVZnC+IU1SbwtmJzOqHclue+9kxconPhTZuX1sN6uA0fclPnqZ2nofKbMN/89GDiAo9VC6hv3BTMVGFEgGu3z7ZUBdtXTz6W1t2uWN7VQH//1FNiUQJdEosS6lJCqV+KSuLlSlkgKqjro7QbRrkJO2NsR2hLfMp97ZlnVjTY6lFk1hOb6p6xp6sfKfXqW7tnZNXCrlbgAs/1xkaJN8cgA2BA/dnUmIT5cyv+14ljKzqfTnhTVwOt1BkKzRYr9fmKgvllB2rCzUg1bjRSsRFX87pzBA+L5NOb4meBKLX21av57Rd8aUDVkpUaq2qF8caWR7bVWEJsKTLA/nyqKj6XcUxNT42Jv3bpBWLXAg11vtnfZ2CmUsN+AOZXKmVBmBltxW5MubVSGyWnxy6J6yuwGu4fwO1H9wv5HBA8PkE+Yy+lTu1R6uu7ZzyKrNSXykwlVlHZC1uRDcwW1Dd+1p3WoyuB/v6XGmYAbUENpT5f6ROvRCXTAPMrkYYbaq0Vm5FKDUsim7En9N1J+2EreTNgBtzSeuhngSi1Tj65yXhqU6+Of2Hg1vyMqVLQJ+crMpVYq/MU5tmq4sLUmGx/vd59d+N1JdA3KxsUyASaUPf3idMaZkYqtRuh0DbUVGzGIp7bVdrVzEvrAajxCDJG6amVDfE9DRUfly8DaE+14rOpdI9sFBlWQ4JcFRfuV5AjXpiqii/uHxPdqNJdB7RUZwDtgfpMpSSBBsxstlrb00q5tWJnKbdWbCo5FfqrFV4IZkEP6yFhlkBnPw1Vqrb++Yzre2bUBV6qN7aV2IJYKzEVWcE8JmEG0GjdptJdB7QEmTAz9m8QH1X6xOlyn/iNhlnGcgz26agsbQiV+7RWaNoRKngR5W4FzK71MJ7aeRoqP4RRiq2qIPDRvmqFuuCjvUjGpCIreKnMAPnLrePii6kxsfizx7P+BjtuXVcBnVBnqnRlg/g4UiADYrdRqd1oq7U9rZQ7xXNDraNSSwcx8dxq46uzPfXy/LQuvbnVCluZlS8GtLYSQ52pxl9uVdOIdvvvk91TxusaoNNgvlTpE69GfeLVCmB2owL8dLk+GqV2PDeUWwJOBXfijSZUNfL+IsxTUPEkJ5T0jKfmLw3UV0GkF2aVglHDi7Kc7Y2NEk8pcKHEBPji1nE5jXhx65i4pOP/dckFYtcAbayGpcxY9mpUiltFT1vRVWzOu4rNecBM2F3lvtEC3+yDW1Y9+OBIqrSB2q1Vq3tAbuyeMRd45kLP8chUYkZCzAiA7QaYL2moa//YHdajK4D+/X/+Ul4E3ojuUxeDGmpYjd9GJdUkxH3it05Uyl0yCk6gEY1ya6uCeYLteu7zDdx45IO00WW38XheQj0+JOTzqw3UsVLTUy/PTcsPRWAh6hVZ24qpqlRfemSAnKbIhPnyAwpqxG5Q6a4A2qfOn0R94rWoLGFmNHBryI16U7E1uITchpvTAFrCblVKsOyHjHucG4W1yPZGpeUDJJPPrZalPfnpYuytl+d2mvqxVGB6Y8tOUIkZqcaEV6mxshlYBojttvRPPy3S9TXdpuOB9nlnKDMgfi0q1UFdB7ej2FTwRjz3jadXdq/Gakc28WsDUGcqtkepUfW4sWdGXuAlPXLsiRtVZMC8sE1BjbjwwLj4W4d76Y4G2gcz1Pp1CXJJvG6gBtgKbkaodR3c2m9jnVRvKrcVqdSM5+eK3+O8WoB977+Npy9Jlcazq12oUatGU0p9UwNNBWakEjMmlXgsocK2IgNgtCvbNpmI6U5+dTTQN5wLQMD8fgSQS+INwFzWUFsxVbkryp4YW5Kp3LHnXuvBS1qPGOrYUys7gt9ZvDW7M7daQXsBcAE2AQa4UpF9ED8wLq5u2ySu6Pg/J4+vdVpSj9+xQPvU+dNKn4YZQCuwAbfdoNArUW6CzhIgFPzmGlkNd7QS1oOeOmE/YqVWtiK9WmFDbMNMNaYiQ4ll0xADaLZr2zZ1rPXoSKD/dvFSopoBZTYwVxTABBpKTcW2o4TaUu4Y8uSFZJ0t0crdKTATbmk99EPZlQWx7Afg1vXqxT27EvXjXEXW3jhhKxxFBsiAWMbtE3L61j935gViRwLtqvPlSp9UZEDMpuB14U7O1ys3vTaj/8ISat1pr3tXrlheWv/oEb01LhJ1W378gPwwRPlk2IpkpcK2FbzQoxJTlanEjIBZNg3z9e0T4vq2TeLeV9c7LU2d99PILsxQ57NRn3izApgtsKVS94k3qNgVKjWhrp/3ee6EcpdV9WSxQ6yGS4v8FS9AnFBqBTd/Z3F5dqfxxra9cKsVuYq8fSKhyIAYUBPmr7ZPiOUOVOmOU2gAbLdPow3izahkGhQa81RqN0rlJuTmArK45+5UmAn37f17vUDbNoTemJFKTJ9MJWakEjMaRdbKLCGGKusGmNm+P9VZF4gdBTQ/ESTQn0UbxFsAuNynYhRHBXWs3ErBS5Zia6X2wJ20K0rJ6bkJTqdGWI9F/NhRilJL67Fnl6wf8wKPkVUKRgAMeGUsoMjXt2/SIG8SNzTUN3ZMdFSqOgZo90IQML8dlcRbGuI4Ylms2LZ65yq3pdhJqBX8tQ61Gi4xRqX5C1700jou73okrhvrOjLUmArM6FVi2gpLhanGjIAZ7eYOFTtJpTsGaNc7S5jLfQpqKwJmwp2u3CXjuQ3kdZ6bXru7YCbc8NH89S56av7OIoCWdoLVCgtmW5Ex7fPGVGJc+BmIdyibAUVWME+aCLDv3eiMC8SOANqF+VxUEm9HgJmN8yXxFuGWYMdwK9Ch3H3Gb9vq7XptztNzE5RuifICEdYDzaPUX++ZTVdk5wLP540BMpU4hpgwK3UGyKpNitv/8kRHpK4jgKZnRrxQ6RNnoj6Br1MBaDdmKje9NmNBz/3HS+kPV+yIUUrpxO39eyTMrlLDXxPoa0W8cUEl9inz4o5JCfXig5MdodJrDvR3//pvpqoBmN+JVJNQA2i7VajYjD7lVheOtCWxcvt991KX+GYf07I2rX9E1FXq5ZmHVe2YNWTLG+cqsuWRYxWGGit4GQGz3X7387VX6TUF2r4QvGLBLKGulCTM7zjRVWx73tgR2hKt1ITb9dyfzc75OOmqZcp6DHqVmh6ZXthEc8GnqhVJ5aWtSHpkG2JADkVe3DEhajJOyljbMSHuvnBiTfO3pkAvbr3fqPOHUZ94NypJhWakWtsxodhUbw19o567W62GS4ysephfxVVww1d/s2eXvOjjhR2j8cYeJSbctjLbKgyIFcyEeFIsPZhsbv/aOb9mQNdmdhmYL0QbxHtRSbxb1lAz+iB3FJsKbit1Ee/99dONP1yxnQPTyLHuXVnw/ob58vTD3rqxgrZeiZMwx944VmIqsoq1HQpkqLQN9VpajzUDmheChBlAS6gBdkaz1dqe9iu38tpnjPdWnvvrLvbNaaDfOXxYQm3/hjl8dKJaYSkyobaV2LYVPiUGuC68Nsj29FqV8dYE6NrMjFTnhUjd3/xe1Cfvc0Yk2FRsQo74TnlDui2hcmsbYiu3hN2qmqRB0e3Lv0PVw1gPVae+tXfW1IupwG6kJ2Z0Fdko8Y6JhBJnwf27nz+5JulsO9C3f/ELYzVws/77GmY1DZUm3EqxE4B7lBsqnee5sQ0VfD2qM8lR1mPAgnpQ3Nq7S9eKWTPOr1ZQiRlt5W1kei1Uuu1AL27dKoH+ogJw+8TZioKaEWDHUBNuKreK8NoJBS/oudczzIQaKr04qqBGfRo+moqs7EXsjdMVWSlxlgIXAXstvHRbgabV+AIgy1aqi7FiK5hj5Qb49apNBU/z3bbP5qCv91gD0BpqWJA6b8z6sV1y0/54tRC7oLe7jNdWoPFcDcD8gWwK5g8iHSsx3I0rtwLdKDcvMC3l/mYdXgim/WHeW9BVDw318t5ZWWpLVWRdpaBXdqFU85vFSte303q0Deja9Iy4WlEwnzNQx3ADcqXaiDHccpm0JUqhYwWnYtOW+NUbyt1LMBPy7/btUSo9OiDwWy6oJUN9GZutxP4/AlXOa6f1aAvQgBllOjwcRsJc1lHOl4xiZyq347Ub8dwc5F6KUOnFEViPQbG88yHzSR7Ay1baZE05C9RG1rVLpdsCNJT5Sw0zgPY1wFyv3FRwqrej3IkqCT03FVvFXlRn/uHK2jT9tPPhRyMwNmPbdql0y4Femp6RMH9YAbAbEjB/QKWWsSTMPJW7DKBjBYf9KOq5oeC9DDOhhvWAUn+7bzZRQwakebaj2evbodItB/pqZYMAzLhXA82nzvYyQs1lfuUm5K5y6/lKSVzcNcsx7elI67H8yE/qgG6G8jayj3aodEuBhnfGj/h8GG0wkUqtYp+E3cCbUOy+WLETyxXM+BJAluf+0+XLPQ2yffJ3Dh0S3z7y0JoDDfh/aPHdeC0DGjBfrPSJ85FqUGdMU6ndSKiLRr9yK899q4dKdDa4WdPf7d0tvt27qyOgbqX1aBnQeLL++fIG8ZEGGb+BIpVaQh0rtlJwKrWyJ4CaSm4DTjuiot9zXwpWw8s1rMdyJtArrzMr21H8/a20Hi0B+runnpYgA2a7Ua3tGEOu1Hthdlb42uXZWYG2/NTTYvmpZ5Lt6WcELEawGV6WzcI/vPxSRyg0/gBapdItAfovly6Lv1y+LBj/rOcZTYbDRNszAA9794Xj0sviY+nkPJczFlsPOFfSWnHyLQG6FR0N+wwZKJKBAHSRLIVtuiYDAeiuGarQ0SIZCEAXyVLYpmsyEIDumqEKHS2SgQB0kSyFbbomAwHorhmq0NEiGQhAF8lS2KZrMhCA7pqhCh0tkoEAdJEshW26JgMB6K4ZqtDRIhkIQBfJUtimazIQgO6aoQodLZKBAHSRLIVtuiYDAeiuGarQ0SIZCEAXyVLYpmsyEIDumqEKHS2SAQn0wsKCuO+++9rW5ubmxKFDh2Qr0sl29o3HQh/ZT18f83KG9Wkv7pvHakdEvn0vLM86vvuevO2xr7RjufvKmy9yLPd4awK0m8C8BLjbt3ve17+VAJ33nlael+8cAFQeND7o8t6D88Af7WpeRY6B47jn1RFA+zpmJ6OVA110367i5sHpbo/zKXqsVmznDjzzmwcOt3Nj3vtwDiuFusi+sX/fOXUM0GkdXGsQCJc7OL0ONMalKHi+P273D4TzyDNznhXT9tlRQKdBnXVi7VoXgCZyydhMqFcLM3pmgEbHWt2KwpdMmVKCte5bO4DGMVp1nmmKhuNljYs7Fr75vH1w/2l9wPJmwGyA9nWyVcuKnHzaibeqT9gvjsnE+2KrgUZe1uKVNx5F+5S3H+bUPc+8vPN9iEW4kApdtNPN2i7vr9E96WYdN28/dvLc6VYD7e4/r6/NWp8HYiPHydsXc8rxbTbM6Gsd0DgIGg7azGb/deWdOE+YyWSfWhnz/shc4NAXDpAv2ufL8/Bt5y5rZs6xL18/2B/EvEUfTQUAAALaSURBVLGwty0ynbc/nm9evu3t8s7B7pcBGm8qehAebCWRA5b1Xmxjv7K2bde6dgHdqvNxc8r85gHI7RqJefsseo5uzov0wQBd9CDN2C7vD8dNfjOOudp9uMmFAGTt06cqWdu3Y52bVwCSB18RiHzb5O0373zdfPuO4VsmgV7twfM61+h6N/GNvr8V27t9WgnQeX/Irei3vU8fJHlj74Om6LLVnG/RY7jbBaAL3sPiJm4lQGMfeQDZALZi2j2PvP642xedz9tvkXPz/ZfLO34AOgdon6ohqSsFmu/FgGPfzWxFIHGByAPP3b7I/GqU2T0H9K+RVyGg0cGV/LXYHcH785LHk3FPgst9kX3D/pvd7P670ziWrz9chvXtfuGYeTC5fcobE3f7rPkix2d+cNy8vtrbZh3XXlcI6GYODjuZFRsF2j6hdk0jJ1nn0MycNXJOeZC4+2oW0Hn5sHNl5ybv+Hyfy4R7HpwvBDSS1IzXSjvPk/LFZvWt0fPLG0B70Brd90q3z+sT8ue+8sbE3d43n7cPe9x8eSn6fmyX9yoEtN2hdky7Hc86ZrcAnXUO7VznApEHk7u9O5/3fp4bxskHM/fXyH74Hl8MQPuyUmBZnhq6g8eBXevonloeSO729nzee3muRUWn6P6wXze/7JcEOm9w2LF2RZyY/co6btFk2ftrxnReztyEZ51DO9e5554Hkbs955H3Iv12x5LvT4t5ebWP6dt3ADotsznL8xLfiUD7AGgUaJxXq2BmyvNymwW1BBo7yjsxeyermUYy8hLiJj7reNjXWrzykt6JQLt9KjLudm7zztkeJ3cM7f0Unc7jhMezj2WA5kGwslWNCUXMOga3K9Ind1u+p9Ux7xzc42edb6vXZeWo6HnkbWefQ9bx3Lzkzdv7zZrmfuqA5ooQQwa6MQMB6G4ctdDn1AwEoFNTE1Z0YwYC0N04aqHPqRkIQKemJqzoxgz8PxGvISOTbnwXAAAAAElFTkSuQmCC;" parent="1" vertex="1">
          <mxGeometry x="660" y="358.75" width="35.46" height="32.5" as="geometry" />
        </mxCell>
        <mxCell id="U9IS0z9IUB5rBUv3sTGb-17" value="APISIX API网关" style="text;html=1;strokeColor=none;fillColor=none;align=left;verticalAlign=middle;whiteSpace=wrap;rounded=0;dashed=1;" parent="1" vertex="1">
          <mxGeometry x="562.5" y="355" width="97.5" height="40" as="geometry" />
        </mxCell>
        <mxCell id="U9IS0z9IUB5rBUv3sTGb-20" value="容器平台&lt;br&gt;ACK" style="rounded=1;whiteSpace=wrap;html=1;" parent="1" vertex="1">
          <mxGeometry x="410" y="250" width="110" height="30" as="geometry" />
        </mxCell>
        <mxCell id="U9IS0z9IUB5rBUv3sTGb-21" value="单体应用" style="rounded=1;whiteSpace=wrap;html=1;" parent="1" vertex="1">
          <mxGeometry x="890" y="270" width="120" height="60" as="geometry" />
        </mxCell>
        <mxCell id="U9IS0z9IUB5rBUv3sTGb-22" value="客制化微服务应用" style="rounded=1;whiteSpace=wrap;html=1;" parent="1" vertex="1">
          <mxGeometry x="930" y="368.75" width="120" height="60" as="geometry" />
        </mxCell>
        <mxCell id="U9IS0z9IUB5rBUv3sTGb-23" value="外部一体化产品&lt;br&gt;（可能是自成体系的微服务应用或者单体应用）" style="rounded=1;whiteSpace=wrap;html=1;" parent="1" vertex="1">
          <mxGeometry x="900" y="490" width="120" height="60" as="geometry" />
        </mxCell>
        <mxCell id="U9IS0z9IUB5rBUv3sTGb-40" style="edgeStyle=orthogonalEdgeStyle;curved=1;rounded=0;orthogonalLoop=1;jettySize=auto;html=1;exitX=0.5;exitY=1;exitDx=0;exitDy=0;entryX=0;entryY=0.5;entryDx=0;entryDy=0;" parent="1" source="U9IS0z9IUB5rBUv3sTGb-31" target="U9IS0z9IUB5rBUv3sTGb-34" edge="1">
          <mxGeometry relative="1" as="geometry" />
        </mxCell>
        <mxCell id="U9IS0z9IUB5rBUv3sTGb-41" value="注册API" style="edgeLabel;html=1;align=center;verticalAlign=middle;resizable=0;points=[];" parent="U9IS0z9IUB5rBUv3sTGb-40" vertex="1" connectable="0">
          <mxGeometry x="-0.3977" y="12" relative="1" as="geometry">
            <mxPoint as="offset" />
          </mxGeometry>
        </mxCell>
        <mxCell id="U9IS0z9IUB5rBUv3sTGb-31" value="支付中心" style="rounded=1;whiteSpace=wrap;html=1;" parent="1" vertex="1">
          <mxGeometry x="58.00000000000003" y="733" width="120" height="60" as="geometry" />
        </mxCell>
        <mxCell id="U9IS0z9IUB5rBUv3sTGb-44" style="edgeStyle=orthogonalEdgeStyle;curved=1;rounded=0;orthogonalLoop=1;jettySize=auto;html=1;exitX=0.5;exitY=0;exitDx=0;exitDy=0;entryX=0.5;entryY=1;entryDx=0;entryDy=0;" parent="1" source="U9IS0z9IUB5rBUv3sTGb-32" target="U9IS0z9IUB5rBUv3sTGb-37" edge="1">
          <mxGeometry relative="1" as="geometry" />
        </mxCell>
        <mxCell id="U9IS0z9IUB5rBUv3sTGb-45" value="注册API" style="edgeLabel;html=1;align=center;verticalAlign=middle;resizable=0;points=[];" parent="U9IS0z9IUB5rBUv3sTGb-44" vertex="1" connectable="0">
          <mxGeometry x="-0.3548" y="4" relative="1" as="geometry">
            <mxPoint as="offset" />
          </mxGeometry>
        </mxCell>
        <mxCell id="U9IS0z9IUB5rBUv3sTGb-50" style="edgeStyle=orthogonalEdgeStyle;curved=1;rounded=0;orthogonalLoop=1;jettySize=auto;html=1;exitX=1;exitY=0.5;exitDx=0;exitDy=0;entryX=0.87;entryY=1.025;entryDx=0;entryDy=0;entryPerimeter=0;fillColor=#e51400;strokeColor=#B20000;strokeWidth=2;" parent="1" source="U9IS0z9IUB5rBUv3sTGb-32" target="U9IS0z9IUB5rBUv3sTGb-34" edge="1">
          <mxGeometry relative="1" as="geometry" />
        </mxCell>
        <mxCell id="U9IS0z9IUB5rBUv3sTGb-51" value="2.调用其他应用API&lt;br&gt;基于认证中心提供的OAuth2.0的token" style="edgeLabel;html=1;align=center;verticalAlign=middle;resizable=0;points=[];" parent="U9IS0z9IUB5rBUv3sTGb-50" vertex="1" connectable="0">
          <mxGeometry x="0.5363" relative="1" as="geometry">
            <mxPoint x="14" y="62" as="offset" />
          </mxGeometry>
        </mxCell>
        <mxCell id="U9IS0z9IUB5rBUv3sTGb-32" value="应用A" style="rounded=1;whiteSpace=wrap;html=1;" parent="1" vertex="1">
          <mxGeometry x="232" y="1066" width="120" height="60" as="geometry" />
        </mxCell>
        <mxCell id="U9IS0z9IUB5rBUv3sTGb-42" style="edgeStyle=orthogonalEdgeStyle;curved=1;rounded=0;orthogonalLoop=1;jettySize=auto;html=1;exitX=0.5;exitY=1;exitDx=0;exitDy=0;entryX=1;entryY=0.5;entryDx=0;entryDy=0;" parent="1" source="U9IS0z9IUB5rBUv3sTGb-33" target="U9IS0z9IUB5rBUv3sTGb-34" edge="1">
          <mxGeometry relative="1" as="geometry" />
        </mxCell>
        <mxCell id="U9IS0z9IUB5rBUv3sTGb-43" value="注册API" style="edgeLabel;html=1;align=center;verticalAlign=middle;resizable=0;points=[];" parent="U9IS0z9IUB5rBUv3sTGb-42" vertex="1" connectable="0">
          <mxGeometry x="0.1038" y="-11" relative="1" as="geometry">
            <mxPoint as="offset" />
          </mxGeometry>
        </mxCell>
        <mxCell id="U9IS0z9IUB5rBUv3sTGb-33" value="订单中心" style="rounded=1;whiteSpace=wrap;html=1;" parent="1" vertex="1">
          <mxGeometry x="474" y="696" width="120" height="60" as="geometry" />
        </mxCell>
        <mxCell id="U9IS0z9IUB5rBUv3sTGb-38" style="edgeStyle=orthogonalEdgeStyle;curved=1;rounded=0;orthogonalLoop=1;jettySize=auto;html=1;exitX=0.25;exitY=0;exitDx=0;exitDy=0;entryX=1;entryY=0.5;entryDx=0;entryDy=0;fillColor=#e51400;strokeColor=#B20000;strokeWidth=2;" parent="1" source="U9IS0z9IUB5rBUv3sTGb-34" target="U9IS0z9IUB5rBUv3sTGb-31" edge="1">
          <mxGeometry relative="1" as="geometry" />
        </mxCell>
        <mxCell id="U9IS0z9IUB5rBUv3sTGb-39" value="3.请求转发" style="edgeLabel;html=1;align=center;verticalAlign=middle;resizable=0;points=[];" parent="U9IS0z9IUB5rBUv3sTGb-38" vertex="1" connectable="0">
          <mxGeometry x="-0.1717" y="17" relative="1" as="geometry">
            <mxPoint x="1" as="offset" />
          </mxGeometry>
        </mxCell>
        <mxCell id="U9IS0z9IUB5rBUv3sTGb-46" style="edgeStyle=orthogonalEdgeStyle;curved=1;rounded=0;orthogonalLoop=1;jettySize=auto;html=1;exitX=0.75;exitY=0;exitDx=0;exitDy=0;entryX=0;entryY=0.5;entryDx=0;entryDy=0;fillColor=#e51400;strokeColor=#B20000;strokeWidth=2;" parent="1" source="U9IS0z9IUB5rBUv3sTGb-34" target="U9IS0z9IUB5rBUv3sTGb-33" edge="1">
          <mxGeometry relative="1" as="geometry" />
        </mxCell>
        <mxCell id="U9IS0z9IUB5rBUv3sTGb-47" value="3.请求转发" style="edgeLabel;html=1;align=center;verticalAlign=middle;resizable=0;points=[];" parent="U9IS0z9IUB5rBUv3sTGb-46" vertex="1" connectable="0">
          <mxGeometry x="0.2593" y="-13" relative="1" as="geometry">
            <mxPoint x="1" as="offset" />
          </mxGeometry>
        </mxCell>
        <mxCell id="U9IS0z9IUB5rBUv3sTGb-53" style="edgeStyle=orthogonalEdgeStyle;curved=1;rounded=0;orthogonalLoop=1;jettySize=auto;html=1;exitX=1;exitY=1;exitDx=0;exitDy=0;entryX=0.5;entryY=1;entryDx=0;entryDy=0;fillColor=#e51400;strokeColor=#B20000;strokeWidth=2;" parent="1" source="U9IS0z9IUB5rBUv3sTGb-34" target="U9IS0z9IUB5rBUv3sTGb-52" edge="1">
          <mxGeometry relative="1" as="geometry" />
        </mxCell>
        <mxCell id="U9IS0z9IUB5rBUv3sTGb-54" value="2.5对接认证中心&lt;br&gt;对token进行认证" style="edgeLabel;html=1;align=center;verticalAlign=middle;resizable=0;points=[];" parent="U9IS0z9IUB5rBUv3sTGb-53" vertex="1" connectable="0">
          <mxGeometry x="0.1791" y="-3" relative="1" as="geometry">
            <mxPoint as="offset" />
          </mxGeometry>
        </mxCell>
        <mxCell id="U9IS0z9IUB5rBUv3sTGb-34" value="" style="rounded=0;whiteSpace=wrap;html=1;strokeColor=default;fillColor=none;dashed=1;" parent="1" vertex="1">
          <mxGeometry x="201" y="866" width="230" height="40" as="geometry" />
        </mxCell>
        <mxCell id="U9IS0z9IUB5rBUv3sTGb-35" value="" style="sketch=0;html=1;dashed=0;whitespace=wrap;fillColor=#2875E2;strokeColor=#ffffff;points=[[0.005,0.63,0],[0.1,0.2,0],[0.9,0.2,0],[0.5,0,0],[0.995,0.63,0],[0.72,0.99,0],[0.5,1,0],[0.28,0.99,0]];shape=mxgraph.kubernetes.icon;prIcon=pod;align=left;" parent="1" vertex="1">
          <mxGeometry x="227.65999999999997" y="874.75" width="25.84" height="27.5" as="geometry" />
        </mxCell>
        <mxCell id="U9IS0z9IUB5rBUv3sTGb-36" value="" style="shape=image;verticalLabelPosition=bottom;labelBackgroundColor=#ffffff;verticalAlign=top;aspect=fixed;imageAspect=0;image=data:image/png,iVBORw0KGgoAAAANSUhEUgAAALQAAAClCAYAAAD1R9cMAAAgAElEQVR4Ae2d6XMcRZrG93/C6q7WZaklS7YwtonYmC87A1iyJN/AwOwxO/t9P+zHHcAGnxhmAA/DaQ5jzGmwLR/YaoEFno3YHWzm2tnxP5AbT2Y+WVnZWUdL3a1udXZExltXV2W9+dOjp96urv47EV4hA+soA3+3js4lnErIgAhAtxGC3y8stPFovXmoAHQbx/2bg/NtPFpvHioA3aZxv/vCCbH04KR4c/fuNh2xNw8TgG7DuH/7H/8ulh7cLGo7JsXZnQ+LYD1al/QAdOtya/b8u58/IdUZCg3bEVTapKbpEwHopqc0ucMftNUAzGi3Du4Wz1WioNLJNDVtLgDdtFT6d0SQ7QjbEVTan6/VLg1ArzaDGe+/+8JxYzVsoN/f+bBU6cuHDmW8O6xaSQYC0CvJWoH3sKphg8xp+GjYjmA9CiSywU0C0A0mrOjm9oUgQbYjgQ7Wo2hGi20XgC6Wp4a2ci8EbZA5DR9NqEMZr6H0Zm4cgM5Mz8pWEtpkVHVoLmO1A1C/ET5sWVmiPe8KQHuSsppFWd6ZMCPaPhpQfx/u81hN2s17A9AmFaufSKtq2CDb07AdR/or0noghtfqMxCAXn0OzR5sWItMn51+WBypROJIfyTjwuHDZl9hYmUZCECvLG917/JdCNb0p4NpcMN2HO2viKOVSBzTMViPutQ2tCAA3VC60jdOgzZv+dF+BfMxHd/eE+7GS89y/poAdH6Ocrdo1DvbkJ+bfkQQZhkHKuECMTfj6RsEoNNzU2hN0aqGDbE9ff2JR6XdgOU4NlCR02f27Cl07LBRfQYC0PU5aWhJDGeyzhwvV3fZ8X5odznq0YD5uIQ5kvF4f0XcWbjSUD/CxioDAehVkOC7EHSBLTIPmO12YqAi0MKr8QwEoBvPmXlHEViLbAMfDYAB9YmBfjl9cqBfXH02lPFMsgtOBKALJsrdbDUXgi7ktw7OS4ipzCcHKgLt+cH+YD3cxOfMB6BzEuRbffeUus+5tmPCe78zgc2rQ3M9gD45qJV5sN/ADKjf27vX14WwLCUDAeiUxGQtXgLIdsv5AIWAZ8XzM4+I5wcr4nmtzFDnU7JVxN0r4QIxazzsdQFoOxsFpn84dVzUtm+ygJ5U06uE+qNdOyXMgBhQE+YXhvrFe3tDGa/A0MhNAtBFM6W3W0rA3Dylhu1QEFOZ+wVgZrv27LMN9rQ3Nw9ANzDud58/JiTQGmpXqbM9dX6d+tRgRQIMsAnyixrqF4cGGuhp724agC449hLmbZvEEhqAllDDetj2Qyv2Cu3Hx7t2GpABNGBG+5Vu158LKp03XAHovAzp9UvbxkXtgXEJdG3buASaCs2oLhQnhVHqHfyUsFiE7YgVmTAPaKgHJNg/hAvEzBELQGemR62U6gyYJdAK6oRSG7Venacm0FRkxl8P9wvVBsTZfaGMlzVkAeis7Oh1ta1jEmYZPUrNC8U6pd6u69QpSs06tF3O+2R2p1TiXw8rRUYEzC9tjGNQ6fRBC0Cn50auuXvyqFJmrdDSdiTUWtkP46v1BWOiTp0CtA0ypz/ZtVMQYkbAbLdz+/fl9Lp3VwegM8b+7omjYmnrmEgo9APj8by0IJuE8dS4YNwxYdWpOQ8rUqxevXxwd50ivzTcL16WUKuI6RvhAtE7cgFob1rUwqX7NcwW1NJHU6EZcZGoLxRzlbqAWttqjGkAbLdXNg4ItPCqz0AAuj4ncgnUuTZVVQp9/1gxpQbg26HYKOs1qtRxnfrT2Z1KkbUyA+ZXRhTUiID59Mig+DBYj7rRC0DXpUSIe9evKpih0ICZzaPUtCOsgEj7UVevdqof0n6kl/JuPvlYUpE1xFTm0yMAWrUfrlz1nEHvLgpAe8b+7vEjYmmqGkMNpSbcFtSE2UR6asaUenUN1Y8MT43yna3EVOTTWplNHBkU5w/s95xB7y4KQDtjD5hrW6qyGainYqWWim1B7fXUEmhPvVreoVfsk0UFcazESpEHpdWA3UD7zciQbEGl40EMQMe5kFNLW0ZFbcuoUmhGKjQjPTWiXfVgvZoKzegodVy3tqzIg9YnjA9Ois/nZkSsxMozE2IZRwHzoHh1dEh8FFTajGIA2qRCiLvHoM6jglDXK3VsQ6SvplJrkG24qdz8uDzxyaJ9L3ViGqU95a3x5VkqMaNS5EHxGwnzkIT51REVF488Z51J704GoPXY37t2VdQ2jyiYN8dQS9tBpd6ivbRPqQm3q9ieTxZlFcSqVyc+YcSNTTsmBOrRVGJGKjIjYP7t6JBg/EO4QAy/JEstk+q8eURCXds8KmTT9iNLqVkFkReGUGraDku1qdZSpRuoV1+Ym1E+2VZkAKwbYLbbJ4+GC8Sg0EKIO0efE0uTI6I2uVEsaail7aBiG4Wmt66KJVwoNkOpza2odt1a3QNyYW7a2AqlxIMG4Nc0zK9VhwSmX6sOy/iHq71dxgtACyFqGmYVqdKISqljT21fMALq2FMbpdYXjGlKrTy1/mQxp169fGBeAm2rMKYlwFZ8vTosXq8OyfZpj6t0zwMNda5NbIwV2lbqyRGxJKHW3nrLqLjxDz+Sz3NW3tpRaig2vDSrII79qKtXs/rBqG9ssj01YY4VWSkxFVnCPDok3gDUOvaySvc00PeuXhG1iWEJNKCG5VAN9qNeqVEB4e+inH3kIV3aW5lSS18NkGVzvwkTl/NgO4wia3sh1XgUiqyUGTC/UVVQY/qzRw/w0qDnYk8DfefIsxrmYbEEmAG3hjrhqbVSf/qjvzdAA+yv56ctqC1P3ZBS62/CyHtArFtRdRUEtgNAA15GKjEjYH5zTEGN+GZ1WHx99EjPwYwT7lmgJcybhkUNTap0hlJPjohrB/fJp+wDZDx1HxEqHX8Io/y0vFD0fLIoPbVV2mPlI9NTb98kbh2YM0pMn6wUGQBriKsKYoCM9taYan/swQvEngW6Nj4sauNDCmgJ9UY5vQTrMaEVG1UPwHxgn3zK/pGorGBmrETi2qP7LaitKgju/XCrIJmeOv07i1/MTSuPbGyFq8hDEmIDc3VYvD02LD5/rPesR08Cfee5ZxXMANqG2qg1oKaf3ihhPhpFCmqt0PK3UfT0N/PTFtSWp/aV9gC1R6mp2Mpbw1PH9uPLuZmER6YS015QkRkBM1uvqXTPAV0Hs1bqJcBswU2lPj3UL45GZXGsEsmI30OBUtvx7MM/EUvyhiYqNKNTBWH1I+0eECq4cw/I8v65Oo8MeI0iS4A3ire0MgPmM+MbJdQXekylew7o2wf2JtWZKi2j9tSAe9OweH/jgDimYT4WRQINcANmKjYjPDb8dMJTm7v2UuyHR6nTvrMoVdmB2KfIhPmMhHpYIP6ph7x0TwF959nDojY2JBbHtNVgJMxU6PEhB2al0ITbVmxbub+ZmzY3NtXdA5KwH43Xqy/OzxgF9ikxFBnwvmPFd8aGxbvjGwVir7x6CuhadUjUqoMSaoAtW0KhFehXtm4WxyoaYhnLllJjGmpdD/kHD/8kcQ9I/OGLc381vyzA6FNqbT9Yr649+ZjxxfTHUoWhxLoBZsAr47iCGUCj3TrWG2W8ngEa6rwImC2o5bwF9qKG+3ilLI7jtwMjHa15KLILM+eh3NJ6ZN4DYn1c3kAVZHnfnAT6zJjyxpmKbGAeFu9tUkAj9oL16Amg7xw+rJRZAm1BDbgJtLYf7w/3ixMSYMCcbEq185Ub1sO+W29pSnnr+rv2Urw1Lgp148flmKcSxzAPW4qswH3XwLxRwgyQ2b58/OC6dx49AfR3+3ZLoBdHB1TUSk2FZjw7VFEwR2UrRuK4Vmqj3FRsK9rK/cFDP07eA4L7q3Ejk3vXHhWakVUQVjuceGlu2u+RDcRUZBUJsh3/fG1934237oG+c/iQqAFktqqCWnppS7EB88lKWZzQMJuIZY5S28oN1cZ8rN5q+uvZnfpuvZG4+pF6f3WKUls+Gkq9vHdWvGPBS3/MaIPrm35/YkRcXOcqve6BXhwZEIsj/RJoTNdGB0Ws1DHcz1fK4mRUMlAruOP5ExWl1BJuCT2Vm7ak3nPjBqfE3Xpp3poKzUildurVAFrBm6bEsTIDXkCNiHbWisvHjq5b67Gugb5z6JCEWUENsAcUzEat4acHxWsDkXg+AtC6SbiT8wBZNiq4pdxpCn79wD551x6hrr+/Oln9wEfl3o/LodRarS/PTxtP7FNhG2IbZgDN9sHkSAC62zIgYd5Y0UD3K5g9Sn1uuCKej0oCCs0IpaZiM9KOuDFW7LL02pynLflmdjoB9Wq/CbMwPyPe2xQrMaHOUmSADIgZP5gYEd8eX58qvW4VehEwbwTIvqbU+txQRZyKyrIBZkxDqX3NqDdVHDHHcwPucw/9WH8jpv7+6vibMJZS44u4rlKjXq1VennvrjqFphIzUokZATMglnFyRJzT7S/XrnWbTuX2d10CfeeZZwSAvjmsofYo9cWN/eJUVBIvVBTQCmZCXRKnqNgScFexy0bBCbWKtudWin3l0KGmf2eRtoIRIANeRioxI2AGxIyY/nDzqFj46for461LoGOYATShTio1QLYbldqN9cpdSii4VG6f59Zem5Jy+/EDBZTauRfEp9T3jwnYDqqxDXFCkQGwblRkxg8nRwXbelPpdQc01PnmcKQVmpFQK099bjASLwLoqGyiUmoqNqNrR2IFV7bEVe54HooNdeZLPvdD319tvl3uVkHcOrW0H1ZJD1UQlO/27Epc4GUq8eSoVGcoMiA+b2JVzl954lF2cV3EdQW0hHkoEovDsBs2zLQfFUGYX9QwMwJuW7E57So25+uVO+m9bZhJivxCrvyKl/7OovneIr5dHter3bv2XE8NH21DXESJCfN5DTXA/ki379bRBeK6AvrmUFksDkVCxgTUCu5zA5H4VaUsADEjlNqG2qfchN323AA+hrrecxNiN95+DNbD/Za5U69OU2rryU1X53cZTwygbTtBj0yIVawKwPzR5qpUaUQA/bGObj+7dX7dAK3UuaxgllBHUqVtpf4VQHZaAm6otke5JeQNeO47lxdSeZDfNE98uxzfjEl+yzyufqR46qkxcXV+xkBswwx4bXvhU2Qb5o8B9ZaquLZOrMe6AXpxyIa5XqnfqCiYf62BNlEvp2K70VVszktLom2KrdzXLN+cRvXtx/bXf7tcQ80PYVS9Gs/Y89wDsqUqfTSVmJFKzOhV5C1ambdUBWD+xIr/uw7KeOsC6DtPPy1uDiqgYTfYlP2IxIcDZQGAfQ2KTbht9U4ot2VLqOC0IfTaiO/Nz6cxXLfc/s6iUuh6pbbv2ItvbFI1a3yiKNXYVeTN6sJPeWQFb50ibwbMVQkzgGa7/mT3XyB2PdAS5oGyWATQg1DmpFIrmEsK2rKKMdjWvFRqvR0gX4FyZ1kNl+h7V6/6nwNiKzWqILihKeVpqFfnp6UfNkqsPbL0xlRiCW9SiT/ZPCo+BciMW6pyHsu6XaW7HuibAyVxc6CsmgP1RanMJfFSxVZnC+IU1SbwtmJzOqHclue+9kxconPhTZuX1sN6uA0fclPnqZ2nofKbMN/89GDiAo9VC6hv3BTMVGFEgGu3z7ZUBdtXTz6W1t2uWN7VQH//1FNiUQJdEosS6lJCqV+KSuLlSlkgKqjro7QbRrkJO2NsR2hLfMp97ZlnVjTY6lFk1hOb6p6xp6sfKfXqW7tnZNXCrlbgAs/1xkaJN8cgA2BA/dnUmIT5cyv+14ljKzqfTnhTVwOt1BkKzRYr9fmKgvllB2rCzUg1bjRSsRFX87pzBA+L5NOb4meBKLX21av57Rd8aUDVkpUaq2qF8caWR7bVWEJsKTLA/nyqKj6XcUxNT42Jv3bpBWLXAg11vtnfZ2CmUsN+AOZXKmVBmBltxW5MubVSGyWnxy6J6yuwGu4fwO1H9wv5HBA8PkE+Yy+lTu1R6uu7ZzyKrNSXykwlVlHZC1uRDcwW1Dd+1p3WoyuB/v6XGmYAbUENpT5f6ROvRCXTAPMrkYYbaq0Vm5FKDUsim7En9N1J+2EreTNgBtzSeuhngSi1Tj65yXhqU6+Of2Hg1vyMqVLQJ+crMpVYq/MU5tmq4sLUmGx/vd59d+N1JdA3KxsUyASaUPf3idMaZkYqtRuh0DbUVGzGIp7bVdrVzEvrAajxCDJG6amVDfE9DRUfly8DaE+14rOpdI9sFBlWQ4JcFRfuV5AjXpiqii/uHxPdqNJdB7RUZwDtgfpMpSSBBsxstlrb00q5tWJnKbdWbCo5FfqrFV4IZkEP6yFhlkBnPw1Vqrb++Yzre2bUBV6qN7aV2IJYKzEVWcE8JmEG0GjdptJdB7QEmTAz9m8QH1X6xOlyn/iNhlnGcgz26agsbQiV+7RWaNoRKngR5W4FzK71MJ7aeRoqP4RRiq2qIPDRvmqFuuCjvUjGpCIreKnMAPnLrePii6kxsfizx7P+BjtuXVcBnVBnqnRlg/g4UiADYrdRqd1oq7U9rZQ7xXNDraNSSwcx8dxq46uzPfXy/LQuvbnVCluZlS8GtLYSQ52pxl9uVdOIdvvvk91TxusaoNNgvlTpE69GfeLVCmB2owL8dLk+GqV2PDeUWwJOBXfijSZUNfL+IsxTUPEkJ5T0jKfmLw3UV0GkF2aVglHDi7Kc7Y2NEk8pcKHEBPji1nE5jXhx65i4pOP/dckFYtcAbayGpcxY9mpUiltFT1vRVWzOu4rNecBM2F3lvtEC3+yDW1Y9+OBIqrSB2q1Vq3tAbuyeMRd45kLP8chUYkZCzAiA7QaYL2moa//YHdajK4D+/X/+Ul4E3ojuUxeDGmpYjd9GJdUkxH3it05Uyl0yCk6gEY1ya6uCeYLteu7zDdx45IO00WW38XheQj0+JOTzqw3UsVLTUy/PTcsPRWAh6hVZ24qpqlRfemSAnKbIhPnyAwpqxG5Q6a4A2qfOn0R94rWoLGFmNHBryI16U7E1uITchpvTAFrCblVKsOyHjHucG4W1yPZGpeUDJJPPrZalPfnpYuytl+d2mvqxVGB6Y8tOUIkZqcaEV6mxshlYBojttvRPPy3S9TXdpuOB9nlnKDMgfi0q1UFdB7ej2FTwRjz3jadXdq/Gakc28WsDUGcqtkepUfW4sWdGXuAlPXLsiRtVZMC8sE1BjbjwwLj4W4d76Y4G2gcz1Pp1CXJJvG6gBtgKbkaodR3c2m9jnVRvKrcVqdSM5+eK3+O8WoB977+Npy9Jlcazq12oUatGU0p9UwNNBWakEjMmlXgsocK2IgNgtCvbNpmI6U5+dTTQN5wLQMD8fgSQS+INwFzWUFsxVbkryp4YW5Kp3LHnXuvBS1qPGOrYUys7gt9ZvDW7M7daQXsBcAE2AQa4UpF9ED8wLq5u2ySu6Pg/J4+vdVpSj9+xQPvU+dNKn4YZQCuwAbfdoNArUW6CzhIgFPzmGlkNd7QS1oOeOmE/YqVWtiK9WmFDbMNMNaYiQ4ll0xADaLZr2zZ1rPXoSKD/dvFSopoBZTYwVxTABBpKTcW2o4TaUu4Y8uSFZJ0t0crdKTATbmk99EPZlQWx7Afg1vXqxT27EvXjXEXW3jhhKxxFBsiAWMbtE3L61j935gViRwLtqvPlSp9UZEDMpuB14U7O1ys3vTaj/8ISat1pr3tXrlheWv/oEb01LhJ1W378gPwwRPlk2IpkpcK2FbzQoxJTlanEjIBZNg3z9e0T4vq2TeLeV9c7LU2d99PILsxQ57NRn3izApgtsKVS94k3qNgVKjWhrp/3ee6EcpdV9WSxQ6yGS4v8FS9AnFBqBTd/Z3F5dqfxxra9cKsVuYq8fSKhyIAYUBPmr7ZPiOUOVOmOU2gAbLdPow3izahkGhQa81RqN0rlJuTmArK45+5UmAn37f17vUDbNoTemJFKTJ9MJWakEjMaRdbKLCGGKusGmNm+P9VZF4gdBTQ/ESTQn0UbxFsAuNynYhRHBXWs3ErBS5Zia6X2wJ20K0rJ6bkJTqdGWI9F/NhRilJL67Fnl6wf8wKPkVUKRgAMeGUsoMjXt2/SIG8SNzTUN3ZMdFSqOgZo90IQML8dlcRbGuI4Ylms2LZ65yq3pdhJqBX8tQ61Gi4xRqX5C1700jou73okrhvrOjLUmArM6FVi2gpLhanGjIAZ7eYOFTtJpTsGaNc7S5jLfQpqKwJmwp2u3CXjuQ3kdZ6bXru7YCbc8NH89S56av7OIoCWdoLVCgtmW5Ex7fPGVGJc+BmIdyibAUVWME+aCLDv3eiMC8SOANqF+VxUEm9HgJmN8yXxFuGWYMdwK9Ch3H3Gb9vq7XptztNzE5RuifICEdYDzaPUX++ZTVdk5wLP540BMpU4hpgwK3UGyKpNitv/8kRHpK4jgKZnRrxQ6RNnoj6Br1MBaDdmKje9NmNBz/3HS+kPV+yIUUrpxO39eyTMrlLDXxPoa0W8cUEl9inz4o5JCfXig5MdodJrDvR3//pvpqoBmN+JVJNQA2i7VajYjD7lVheOtCWxcvt991KX+GYf07I2rX9E1FXq5ZmHVe2YNWTLG+cqsuWRYxWGGit4GQGz3X7387VX6TUF2r4QvGLBLKGulCTM7zjRVWx73tgR2hKt1ITb9dyfzc75OOmqZcp6DHqVmh6ZXthEc8GnqhVJ5aWtSHpkG2JADkVe3DEhajJOyljbMSHuvnBiTfO3pkAvbr3fqPOHUZ94NypJhWakWtsxodhUbw19o567W62GS4ysephfxVVww1d/s2eXvOjjhR2j8cYeJSbctjLbKgyIFcyEeFIsPZhsbv/aOb9mQNdmdhmYL0QbxHtRSbxb1lAz+iB3FJsKbit1Ee/99dONP1yxnQPTyLHuXVnw/ob58vTD3rqxgrZeiZMwx944VmIqsoq1HQpkqLQN9VpajzUDmheChBlAS6gBdkaz1dqe9iu38tpnjPdWnvvrLvbNaaDfOXxYQm3/hjl8dKJaYSkyobaV2LYVPiUGuC68Nsj29FqV8dYE6NrMjFTnhUjd3/xe1Cfvc0Yk2FRsQo74TnlDui2hcmsbYiu3hN2qmqRB0e3Lv0PVw1gPVae+tXfW1IupwG6kJ2Z0Fdko8Y6JhBJnwf27nz+5JulsO9C3f/ELYzVws/77GmY1DZUm3EqxE4B7lBsqnee5sQ0VfD2qM8lR1mPAgnpQ3Nq7S9eKWTPOr1ZQiRlt5W1kei1Uuu1AL27dKoH+ogJw+8TZioKaEWDHUBNuKreK8NoJBS/oudczzIQaKr04qqBGfRo+moqs7EXsjdMVWSlxlgIXAXstvHRbgabV+AIgy1aqi7FiK5hj5Qb49apNBU/z3bbP5qCv91gD0BpqWJA6b8z6sV1y0/54tRC7oLe7jNdWoPFcDcD8gWwK5g8iHSsx3I0rtwLdKDcvMC3l/mYdXgim/WHeW9BVDw318t5ZWWpLVWRdpaBXdqFU85vFSte303q0Deja9Iy4WlEwnzNQx3ADcqXaiDHccpm0JUqhYwWnYtOW+NUbyt1LMBPy7/btUSo9OiDwWy6oJUN9GZutxP4/AlXOa6f1aAvQgBllOjwcRsJc1lHOl4xiZyq347Ub8dwc5F6KUOnFEViPQbG88yHzSR7Ay1baZE05C9RG1rVLpdsCNJT5Sw0zgPY1wFyv3FRwqrej3IkqCT03FVvFXlRn/uHK2jT9tPPhRyMwNmPbdql0y4Femp6RMH9YAbAbEjB/QKWWsSTMPJW7DKBjBYf9KOq5oeC9DDOhhvWAUn+7bzZRQwakebaj2evbodItB/pqZYMAzLhXA82nzvYyQs1lfuUm5K5y6/lKSVzcNcsx7elI67H8yE/qgG6G8jayj3aodEuBhnfGj/h8GG0wkUqtYp+E3cCbUOy+WLETyxXM+BJAluf+0+XLPQ2yffJ3Dh0S3z7y0JoDDfh/aPHdeC0DGjBfrPSJ85FqUGdMU6ndSKiLRr9yK899q4dKdDa4WdPf7d0tvt27qyOgbqX1aBnQeLL++fIG8ZEGGb+BIpVaQh0rtlJwKrWyJ4CaSm4DTjuiot9zXwpWw8s1rMdyJtArrzMr21H8/a20Hi0B+runnpYgA2a7Ua3tGEOu1Hthdlb42uXZWYG2/NTTYvmpZ5Lt6WcELEawGV6WzcI/vPxSRyg0/gBapdItAfovly6Lv1y+LBj/rOcZTYbDRNszAA9794Xj0sviY+nkPJczFlsPOFfSWnHyLQG6FR0N+wwZKJKBAHSRLIVtuiYDAeiuGarQ0SIZCEAXyVLYpmsyEIDumqEKHS2SgQB0kSyFbbomAwHorhmq0NEiGQhAF8lS2KZrMhCA7pqhCh0tkoEAdJEshW26JgMB6K4ZqtDRIhkIQBfJUtimazIQgO6aoQodLZKBAHSRLIVtuiYDAeiuGarQ0SIZCEAXyVLYpmsyEIDumqEKHS2SAQn0wsKCuO+++9rW5ubmxKFDh2Qr0sl29o3HQh/ZT18f83KG9Wkv7pvHakdEvn0vLM86vvuevO2xr7RjufvKmy9yLPd4awK0m8C8BLjbt3ve17+VAJ33nlael+8cAFQeND7o8t6D88Af7WpeRY6B47jn1RFA+zpmJ6OVA110367i5sHpbo/zKXqsVmznDjzzmwcOt3Nj3vtwDiuFusi+sX/fOXUM0GkdXGsQCJc7OL0ONMalKHi+P273D4TzyDNznhXT9tlRQKdBnXVi7VoXgCZyydhMqFcLM3pmgEbHWt2KwpdMmVKCte5bO4DGMVp1nmmKhuNljYs7Fr75vH1w/2l9wPJmwGyA9nWyVcuKnHzaibeqT9gvjsnE+2KrgUZe1uKVNx5F+5S3H+bUPc+8vPN9iEW4kApdtNPN2i7vr9E96WYdN28/dvLc6VYD7e4/r6/NWp8HYiPHydsXc8rxbTbM6Gsd0DgIGg7azGb/deWdOE+YyWSfWhnz/shc4NAXDpAv2ufL8/Bt5y5rZs6xL18/2B/EvEUfTQUAAALaSURBVLGwty0ynbc/nm9evu3t8s7B7pcBGm8qehAebCWRA5b1Xmxjv7K2bde6dgHdqvNxc8r85gHI7RqJefsseo5uzov0wQBd9CDN2C7vD8dNfjOOudp9uMmFAGTt06cqWdu3Y52bVwCSB18RiHzb5O0373zdfPuO4VsmgV7twfM61+h6N/GNvr8V27t9WgnQeX/Irei3vU8fJHlj74Om6LLVnG/RY7jbBaAL3sPiJm4lQGMfeQDZALZi2j2PvP642xedz9tvkXPz/ZfLO34AOgdon6ohqSsFmu/FgGPfzWxFIHGByAPP3b7I/GqU2T0H9K+RVyGg0cGV/LXYHcH785LHk3FPgst9kX3D/pvd7P670ziWrz9chvXtfuGYeTC5fcobE3f7rPkix2d+cNy8vtrbZh3XXlcI6GYODjuZFRsF2j6hdk0jJ1nn0MycNXJOeZC4+2oW0Hn5sHNl5ybv+Hyfy4R7HpwvBDSS1IzXSjvPk/LFZvWt0fPLG0B70Brd90q3z+sT8ue+8sbE3d43n7cPe9x8eSn6fmyX9yoEtN2hdky7Hc86ZrcAnXUO7VznApEHk7u9O5/3fp4bxskHM/fXyH74Hl8MQPuyUmBZnhq6g8eBXevonloeSO729nzee3muRUWn6P6wXze/7JcEOm9w2LF2RZyY/co6btFk2ftrxnReztyEZ51DO9e5554Hkbs955H3Iv12x5LvT4t5ebWP6dt3ADotsznL8xLfiUD7AGgUaJxXq2BmyvNymwW1BBo7yjsxeyermUYy8hLiJj7reNjXWrzykt6JQLt9KjLudm7zztkeJ3cM7f0Unc7jhMezj2WA5kGwslWNCUXMOga3K9Ind1u+p9Ux7xzc42edb6vXZeWo6HnkbWefQ9bx3Lzkzdv7zZrmfuqA5ooQQwa6MQMB6G4ctdDn1AwEoFNTE1Z0YwYC0N04aqHPqRkIQKemJqzoxgz8PxGvISOTbnwXAAAAAElFTkSuQmCC;" parent="1" vertex="1">
          <mxGeometry x="361" y="869.75" width="35.46" height="32.5" as="geometry" />
        </mxCell>
        <mxCell id="U9IS0z9IUB5rBUv3sTGb-37" value="APISIX API网关" style="text;html=1;strokeColor=none;fillColor=none;align=left;verticalAlign=middle;whiteSpace=wrap;rounded=0;dashed=1;" parent="1" vertex="1">
          <mxGeometry x="263.5" y="866" width="97.5" height="40" as="geometry" />
        </mxCell>
        <mxCell id="U9IS0z9IUB5rBUv3sTGb-52" value="认证中心" style="rounded=1;whiteSpace=wrap;html=1;" parent="1" vertex="1">
          <mxGeometry x="610" y="883" width="84" height="30" as="geometry" />
        </mxCell>
        <mxCell id="U9IS0z9IUB5rBUv3sTGb-56" value="" style="endArrow=classic;html=1;rounded=0;exitX=1;exitY=0.5;exitDx=0;exitDy=0;entryX=0.75;entryY=1;entryDx=0;entryDy=0;edgeStyle=orthogonalEdgeStyle;curved=1;fillColor=#e51400;strokeColor=#B20000;strokeWidth=2;" parent="1" source="U9IS0z9IUB5rBUv3sTGb-32" target="U9IS0z9IUB5rBUv3sTGb-52" edge="1">
          <mxGeometry width="50" height="50" relative="1" as="geometry">
            <mxPoint x="695" y="649" as="sourcePoint" />
            <mxPoint x="745" y="599" as="targetPoint" />
          </mxGeometry>
        </mxCell>
        <mxCell id="U9IS0z9IUB5rBUv3sTGb-57" value="1.通过clientid，clientkey&lt;br&gt;获取OAuth2的token" style="edgeLabel;html=1;align=center;verticalAlign=middle;resizable=0;points=[];" parent="U9IS0z9IUB5rBUv3sTGb-56" vertex="1" connectable="0">
          <mxGeometry x="-0.0992" y="39" relative="1" as="geometry">
            <mxPoint x="17" as="offset" />
          </mxGeometry>
        </mxCell>
      </root>
    </mxGraphModel>
  </diagram>
</mxfile>
